<svg width="24" height="24" viewBox="0 0 24 24" fill="none" xmlns="http://www.w3.org/2000/svg">
<path d="M2.0498 2.0498H4.0498L6.7098 14.4698C6.80738 14.9247 7.06048 15.3313 7.42552 15.6197C7.79056 15.908 8.24471 16.0602 8.7098 16.0498H18.4898C18.945 16.0491 19.3863 15.8931 19.7408 15.6076C20.0954 15.3222 20.3419 14.9243 20.4398 14.4798L22.0898 7.0498H5.1198M8.99976 20.9998C8.99976 21.552 8.55204 21.9998 7.99976 21.9998C7.44747 21.9998 6.99976 21.552 6.99976 20.9998C6.99976 20.4475 7.44747 19.9998 7.99976 19.9998C8.55204 19.9998 8.99976 20.4475 8.99976 20.9998ZM19.9998 20.9998C19.9998 21.552 19.552 21.9998 18.9998 21.9998C18.4475 21.9998 17.9998 21.552 17.9998 20.9998C17.9998 20.4475 18.4475 19.9998 18.9998 19.9998C19.552 19.9998 19.9998 20.4475 19.9998 20.9998Z" stroke="#6155F5" stroke-linecap="round" stroke-linejoin="round"/>
</svg>
